<?xml version="1.0" standalone="no"?>
<!DOCTYPE svg PUBLIC "-//W3C//DTD SVG 20010904//EN"
 "http://www.w3.org/TR/2001/REC-SVG-20010904/DTD/svg10.dtd">
<svg version="1.0" xmlns="http://www.w3.org/2000/svg"
 width="418.000000pt" height="418.000000pt" viewBox="0 0 418.000000 418.000000"
 preserveAspectRatio="xMidYMid meet">
<metadata>
Created by potrace 1.14, written by Peter Selinger 2001-2017
</metadata>
<g transform="translate(0.000000,418.000000) scale(0.100000,-0.100000)"
fill="#000000" stroke="none">
<path d="M2878 3855 c-2 -2 -25 -6 -53 -10 -73 -10 -75 -10 -130 -27 -266 -82
-486 -307 -573 -588 -47 -151 -50 -341 -7 -519 27 -113 41 -150 96 -266 62
-130 129 -222 249 -344 47 -48 120 -109 149 -125 9 -5 18 -12 21 -15 24 -28
236 -125 260 -119 3 1 15 -4 28 -11 20 -10 23 -19 21 -62 -2 -27 -7 -49 -11
-49 -5 0 -7 -4 -4 -8 3 -5 -6 -21 -19 -36 -26 -30 -23 -54 8 -65 21 -8 21 -13
21 -567 l1 -559 41 -3 42 -3 0 548 c1 301 1 555 1 563 1 8 11 20 24 25 22 10
26 43 6 56 -12 7 -29 67 -29 102 0 27 15 50 35 54 6 0 24 3 41 6 17 3 42 11
55 18 13 7 26 14 29 14 15 3 85 41 88 48 2 4 8 7 14 7 5 0 15 6 23 12 7 7 25
22 40 33 35 25 175 162 175 170 0 4 7 13 15 22 20 19 86 117 116 169 20 37 88
187 93 209 2 6 6 17 9 25 7 16 27 93 33 125 15 79 18 115 18 230 0 72 -3 148
-7 170 -4 22 -10 53 -13 68 -13 79 -97 277 -117 277 -6 0 -8 3 -4 6 10 11 -48
87 -122 160 -80 80 -82 82 -142 120 -24 16 -47 33 -51 39 -4 5 -8 6 -8 2 0 -5
-15 0 -33 11 -28 16 -137 57 -144 54 -2 0 -17 4 -35 9 -18 6 -49 12 -68 15
-40 5 -179 12 -182 9z m-62 -291 c10 -40 -2 -51 -80 -74 -42 -13 -81 -29 -87
-36 -6 -8 -17 -14 -25 -14 -7 0 -46 -31 -86 -70 -40 -38 -70 -70 -65 -70 4 0
-7 -16 -24 -35 -38 -41 -70 -45 -89 -11 -11 22 -10 30 20 75 17 28 37 51 43
51 6 0 8 2 5 5 -5 5 59 75 67 75 2 0 16 11 30 25 56 51 223 118 268 107 9 -2
20 -15 23 -28z"/>
<path d="M955 3563 c-38 -7 -92 -20 -120 -29 -56 -18 -183 -81 -203 -101 -7
-7 -18 -13 -23 -13 -16 0 -209 -199 -209 -215 0 -8 -4 -15 -9 -15 -5 0 -14
-13 -21 -30 -7 -16 -17 -30 -22 -30 -5 0 -7 -4 -3 -9 3 -5 -2 -16 -10 -25 -9
-9 -18 -25 -20 -37 -2 -12 -9 -27 -16 -35 -6 -8 -9 -14 -5 -14 3 0 -1 -16 -9
-37 -8 -20 -17 -48 -20 -62 -3 -14 -7 -37 -10 -51 -13 -59 -25 -250 -15 -250
3 0 5 -15 6 -33 1 -39 10 -98 24 -152 6 -22 13 -47 15 -55 2 -8 4 -17 6 -20 1
-3 3 -9 4 -15 2 -5 4 -13 5 -17 1 -5 3 -11 4 -15 1 -5 11 -29 23 -54 11 -26
27 -63 34 -83 7 -20 17 -36 21 -36 4 0 8 -5 8 -11 0 -6 13 -31 30 -56 17 -24
30 -47 30 -50 0 -7 83 -107 93 -111 4 -2 7 -8 7 -12 0 -11 107 -118 140 -140
12 -8 34 -25 48 -38 93 -79 261 -154 372 -166 29 -3 36 -8 41 -34 7 -35 -11
-93 -41 -134 l-21 -28 29 -17 28 -18 -1 -518 c0 -286 3 -523 6 -529 8 -12 54
-17 69 -8 9 5 12 146 12 534 0 290 2 525 5 522 4 -3 14 4 24 16 19 21 18 22
-4 62 -21 37 -24 60 -19 132 2 15 17 26 55 42 29 12 56 22 60 22 24 0 221 150
266 204 9 10 26 29 38 42 77 79 199 292 243 424 90 270 80 591 -28 810 -25 51
-103 174 -116 182 -6 4 -8 8 -4 8 22 0 -199 190 -221 190 -5 0 -11 4 -13 8 -8
19 -176 86 -244 96 -20 4 -40 9 -45 12 -19 11 -208 9 -274 -3z m14 -271 c15
-28 2 -61 -28 -69 -14 -4 -28 -8 -31 -9 -3 -1 -20 -5 -37 -9 -18 -4 -33 -11
-33 -16 0 -5 -3 -8 -7 -7 -14 4 -53 -13 -53 -23 0 -5 -6 -9 -12 -9 -19 0 -100
-80 -147 -144 -43 -58 -69 -69 -97 -42 -20 21 -18 36 16 89 32 51 123 147 138
147 6 0 12 6 15 13 6 15 127 77 150 77 9 0 19 5 22 10 3 6 26 10 50 10 33 0
47 -5 54 -18z"/>
</g>
</svg>
